<svg xmlns="http://www.w3.org/2000/svg" width="100" height="100" viewBox="0 0 100 100"><path d="M88.696 24.597l.003-1.938-2.435-.006-.003 1.94-1.914.007-.008 5.354 6.263.01.008-5.375zM84.336 31.923l-.048 29.071h.011l-.038 21.696 1.563.915 1.557 5.547 1.574-5.542 1.567-.8.039-21.857h-.012l.048-29.018zM26.657 15.854l33.571-.025c4.248-.002 3.928-5.501-.012-5.848-1.91-.166-6.222-.545-7.718-.677-1.479-.129-2.581-1.369-2.583-2.569-.002-3.77-.98-5.738-4.543-5.735l-3.882.003c-3.565.002-4.539 1.971-4.537 5.743 0 1.199-1.1 2.439-2.578 2.57-1.497.136-5.807.521-7.712.691-3.943.351-4.259 5.849-.006 5.847zm16.856-12.521c1.216 0 2.197.984 2.202 2.197.004 1.214-.983 2.199-2.199 2.2-1.214-.001-2.194-.979-2.201-2.194-.002-1.216.981-2.201 2.198-2.203zM65.295 13.394c-.097.936-.429 2.097-1.057 2.774-.569.62-1.618 1.356-3.344 1.362l-34.744.02c-1.728 0-2.773-.744-3.345-1.361-.635-.678-.964-1.836-1.07-2.769h-11.702l.044 85.33 66.979-.039-.045-85.323-11.716.006zm-39.036 69.773c-1.953 0-3.536-1.583-3.536-3.536s1.583-3.536 3.536-3.536 3.536 1.583 3.536 3.536-1.583 3.536-3.536 3.536zm0-15.287c-1.953 0-3.536-1.583-3.536-3.536s1.583-3.535 3.536-3.535 3.536 1.582 3.536 3.535-1.583 3.536-3.536 3.536zm0-15.286c-1.953 0-3.536-1.583-3.536-3.536s1.583-3.536 3.536-3.536 3.536 1.583 3.536 3.536-1.583 3.536-3.536 3.536zm0-15.286c-1.953 0-3.536-1.583-3.536-3.536s1.583-3.536 3.536-3.536 3.536 1.583 3.536 3.536-1.583 3.536-3.536 3.536zm8.8-5.583l28.324-.023.004 4.059-28.327.016-.001-4.052zm.002 15.271h28.33v4.059h-28.33v-4.059zm.003 15.285h28.331v4.06h-28.331v-4.06zm28.336 19.335l-28.329.022-.005-4.055 28.335-.023-.001 4.056z"/></svg>