<svg xmlns="http://www.w3.org/2000/svg" width="100" height="100" viewBox="0 0 100 100"><g><path d="M-192 0h185v99h-185zM0-36h100v30h-100z"/><text transform="translate(66 -19.5)" font-family="'Helvetica'" font-size="2.4">http://thenounproject.com</text><text transform="translate(7.166 -24.5)"><tspan x="0" y="0" font-family="'Helvetica-Bold'" font-size="6.158">The Noun Project</tspan><tspan x="1.12" y="4.8" font-family="'Helvetica-Bold'" font-size="4">Icon Template</tspan></text><text transform="translate(-178.5 10.5)" font-family="'Helvetica-Bold'" font-size="6.158">Reminders</text><path stroke="#fff" stroke-miterlimit="10" d="M8-14.5h10M-179 16.5h17"/><path d="M-170.802 31.318h8.721v8.642h-8.721zM-164.455 42.312h4.747v-4.703h-4.747v4.703zm5.189.437h-5.63v-5.579h5.63v5.579zm-6.955 1.313h8.279v-8.203h-8.279v8.203zm8.721.438h-9.163v-9.079h9.163v9.079zM-166.149 44.133l-.143-.142 8.279-8.204.142.142z"/><path fill="none" d="M-179 58h35v32.5h-35z"/><text transform="translate(-179 60.157)"><tspan x="0" y="0" font-family="'Helvetica-Bold'" font-size="3">Strokes</tspan><tspan x="0" y="5" font-family="'Helvetica'" font-size="2.4">Try to keep strokes at 4px</tspan><tspan x="0" y="10" font-family="'Helvetica'" font-size="2.4">Minimum stroke weight is 2px</tspan><tspan x="0" y="14.5" font-family="'Helvetica'" font-size="2.4">For thicker strokes use even</tspan><tspan x="0" y="17.5" font-family="'Helvetica'" font-size="2.4">numbers: 6px, 8px etc.</tspan><tspan x="0" y="22" font-family="'Helvetica-Bold'" font-size="2.4">Remember to expand strokes</tspan><tspan x="0" y="25" font-family="'Helvetica-Bold'" font-size="2.4">before saving as an SVG</tspan></text><path fill="none" d="M-136.5 58h35v32.5h-35z"/><text transform="translate(-136.5 60.157)"><tspan x="0" y="0" font-family="'Helvetica-Bold'" font-size="3">Size</tspan><tspan x="0" y="5" font-family="'Helvetica'" font-size="2.4">Cannot be wider or taller than</tspan><tspan x="0" y="8.5" font-family="'Helvetica'" font-size="2.4">100px (artboard size)</tspan><tspan x="0" y="13.5" font-family="'Helvetica'" font-size="2.4">Scale your icon to fill as much of</tspan><tspan x="0" y="16.5" font-family="'Helvetica'" font-size="2.4">the artboard as possible</tspan></text><path fill="none" d="M-94 58h35v32.5h-35z"/><text transform="translate(-94 60.157)"><tspan x="0" y="0" font-family="'Helvetica-Bold'" font-size="3">Ungroup</tspan><tspan x="0" y="5" font-family="'Helvetica'" font-size="2.4">If your design has more than one</tspan><tspan x="0" y="8" font-family="'Helvetica'" font-size="2.4">shape, make sure to ungroup</tspan></text><path fill="none" d="M-50 58h35v32.5h-35z"/><text transform="translate(-50 60.157)"><tspan x="0" y="0" font-family="'Helvetica-Bold'" font-size="3">Save as</tspan><tspan x="0" y="5" font-family="'Helvetica'" font-size="2.4">Save as .SVG and make sure</tspan><tspan x="0" y="8" font-family="'Helvetica'" font-size="2.4">“Use Artboards” is checked</tspan></text><text transform="matrix(1.007 0 0 1 -125.542 30.593)" font-family="'Helvetica'" font-size="2.573">100px</text><text transform="matrix(1.007 0 0 1 -41 39)" font-family="'Helvetica-Bold'" font-size="5.146">.SVG</text><path d="M-126.514 34.815h10.261v10.185h-10.261zM-126.477 31.766h.522v2.337h-.522zM-116.812 31.766h.523v2.337h-.523zM-127 32.337h11.233v.572h-11.233zM-83.805 33.844h10.305v10.156h-10.305zM-76.809 28.707h3.308v3.261h-3.308z"/><path stroke="#fff" stroke-miterlimit="10" d="M-178.5 22.5h30v30h-30zM-136.5 22.5h30v30h-30zM-93.5 22.5h30v30h-30zM-49.5 22.5h30v30h-30z"/></g><g><path d="M43.619 5h26.9c3.502 0 6.367 2.867 6.367 6.375v12.728c0 3.508-2.865 6.377-6.367 6.377h-4.146v8.206l-8.205-8.206h-14.549c-3.508 0-6.371-2.869-6.371-6.377v-12.728c0-3.508 2.867-6.375 6.371-6.375zM81.287 48.302c-5.076 0-9.195-4.119-9.195-9.194 0-5.083 4.119-9.201 9.195-9.201 5.084 0 9.201 4.119 9.201 9.201 0 5.075-4.115 9.194-9.201 9.194zM65.621 80.654v-18.026c0-6.498 4.537-11.78 10.07-11.78h10.797c5.533 0 10.471 5.284 10.471 11.78v18.026h-31.338zM62.684 52.979l-22.979-.059-2.228 5.416c-2.434-2.243-5.505-3.593-8.729-3.593h-14.357c-7.356 0-13.391 7.026-13.391 15.665v23.973h41.672v-10.223l7.181.018 12.831-31.197zm-11.362 22.543l-8.65-.022v-.705l8.939.022-.289.705zm1.145-2.783l-9.794-.027v-.705l10.085.027-.291.705zm1.144-2.785l-10.95-.027-.035-.706 11.276.03-.291.703zm1.145-2.783l-12.405-.032c-.047-.237-.098-.474-.155-.706l12.851.033-.291.705zm1.146-2.784l-14.359-.038c-.092-.238-.189-.474-.292-.706l14.941.038-.29.706zm1.145-2.784l-16.904-.045c-.151-.24-.309-.476-.471-.707l17.666.047-.291.705zm-16.223-6.322l18.803.048-.291.705-18.802-.049.29-.704zm-1.145 2.783l18.803.049-.291.704-18.802-.047.29-.706zm2.993 19.516l7.794.022-.289.703-7.505-.02v-.705zM21.956 51.531c6.763 0 12.236-5.478 12.236-12.227 0-6.758-5.476-12.234-12.236-12.234-6.751 0-12.227 5.476-12.227 12.234 0 6.75 5.476 12.227 12.227 12.227z"/></g></svg>